<?xml version="1.0" encoding="UTF-8"?>
<svg version="1.1" xmlns="http://www.w3.org/2000/svg" width="1024" height="1024">
<path d="M0 0 C337.92 0 675.84 0 1024 0 C1024 337.92 1024 675.84 1024 1024 C686.08 1024 348.16 1024 0 1024 C0 686.08 0 348.16 0 0 Z " fill="#FEFCF9" transform="translate(0,0)"/>
<path d="M0 0 C0.74894531 -0.01417969 1.49789063 -0.02835938 2.26953125 -0.04296875 C4.1875 0.1875 4.1875 0.1875 6.1875 2.1875 C8.51511163 31.88218172 -5.86247218 65.96915488 -24.03125 89 C-43.1651792 111.09834077 -71.18970774 120.13077069 -98.55078125 127.46484375 C-111.94003881 131.00212931 -111.94003881 131.00212931 -121.8125 140.1875 C-120.56855469 140.42984375 -119.32460938 140.6721875 -118.04296875 140.921875 C-109.04039889 142.71641321 -100.25749789 144.48057666 -91.8125 148.1875 C-90.86503906 148.59484375 -89.91757812 149.0021875 -88.94140625 149.421875 C-61.64916316 162.05651549 -44.27908286 186.57334442 -33.3984375 213.71484375 C-31.07968107 220.19568455 -30.53453051 224.96719491 -29.8125 232.1875 C5.1675 231.8575 40.1475 231.5275 76.1875 231.1875 C79.1575 219.3075 82.1275 207.4275 85.1875 195.1875 C88.39577344 182.65355606 88.39577344 182.65355606 89.86425781 177.15795898 C90.25888846 175.67237963 90.6478907 174.18529744 91.03222656 172.69702148 C96.42965586 151.811603 96.42965586 151.811603 103.16496277 147.1083374 C107.74943141 144.56321461 112.01329409 144.63111805 117.15844727 144.68579102 C118.62318985 144.67768654 118.62318985 144.67768654 120.11752319 144.66941833 C123.3299637 144.65695962 126.54150308 144.67340238 129.75390625 144.69140625 C131.99397326 144.69125121 134.23404053 144.68976138 136.47410583 144.68699646 C141.16213888 144.68561378 145.84986549 144.69814992 150.5378418 144.72094727 C156.54241896 144.74934757 162.54648777 144.74658819 168.55110264 144.73385715 C173.17425365 144.72689797 177.79728746 144.7346918 182.42042351 144.74711418 C184.63437386 144.75162517 186.84833681 144.75196857 189.06228828 144.74804878 C192.15710319 144.74513387 195.25122057 144.76165702 198.34594727 144.78344727 C199.7137307 144.77669479 199.7137307 144.77669479 201.10914612 144.76980591 C206.89806029 144.83742345 211.33837668 145.59424455 215.796875 149.65234375 C220.74376339 156.03925102 221.93633239 160.16774665 221.1875 168.1875 C220.09910256 173.80758858 217.66898194 177.23769334 213.39453125 180.9609375 C207.88528397 184.02271386 201.76137807 184.44193877 195.578125 184.50634766 C194.5083567 184.52141609 194.5083567 184.52141609 193.41697693 184.53678894 C191.09049185 184.56735544 188.76412037 184.58458109 186.4375 184.6015625 C184.8122461 184.62029559 183.1870017 184.63987057 181.56176758 184.6602478 C177.30728792 184.71134906 173.0527768 184.75109181 168.79815674 184.78839111 C164.44739135 184.82856955 160.09675433 184.87959842 155.74609375 184.9296875 C147.22665053 185.02618586 138.70714323 185.11067319 130.1875 185.1875 C125.80474041 201.01430654 121.65922347 216.89362268 117.625 232.8125 C117.00811736 235.24049394 116.39117262 237.66847211 115.77416992 240.09643555 C112.06938883 254.68961696 108.4075575 269.2931494 104.77081299 283.90341187 C98.97799804 307.17489575 93.03924536 330.40675292 87.05737305 353.63015747 C82.11638599 372.81460674 77.20926912 392.00714369 72.359375 411.21484375 C72.11469923 412.18369318 71.87002346 413.15254261 71.61793327 414.15075111 C69.44475855 422.75701875 67.27292614 431.36362335 65.10745239 439.97183228 C62.54221676 450.16894434 59.96720396 460.36343262 57.3682251 470.55200195 C56.58960173 473.60475745 55.81566483 476.65863799 55.0458374 479.71362305 C54.16007856 483.22552216 53.26162365 486.73392732 52.35301781 490.2399826 C51.8757536 492.09311261 51.41066333 493.94936507 50.94612122 495.8057251 C48.48760384 505.19823791 45.54935639 513.66867478 37.1875 519.1875 C31.56706425 521.2045751 26.55004341 521.4737763 20.66595459 521.44819641 C19.72599522 521.45202196 18.78603585 521.45584751 17.81759286 521.45978898 C14.67749149 521.47008217 11.53757424 521.46613366 8.39746094 521.4621582 C6.14156933 521.46650701 3.8856792 521.47169072 1.62979126 521.47764587 C-4.49485822 521.49103671 -10.61944598 521.49161387 -16.74410725 521.48908257 C-21.86741943 521.48801178 -26.99071918 521.4928996 -32.11402869 521.497688 C-44.90715477 521.50942037 -57.70023667 521.50855823 -70.49336335 521.50213119 C-81.56374421 521.49697612 -92.6340367 521.50818069 -103.70440009 521.52722941 C-115.10090122 521.54668691 -126.49734446 521.55455912 -137.89386535 521.55110615 C-144.27998546 521.54930104 -150.66602485 521.55185089 -157.05213165 521.56582069 C-163.07027112 521.57849188 -169.08823573 521.57636787 -175.10637283 521.56340981 C-177.3011519 521.56106363 -179.49594363 521.56370731 -181.69070816 521.57203293 C-213.44870601 521.68370076 -242.68028329 515.56414783 -266.21044922 492.81298828 C-273.14405129 485.77794979 -278.69966303 478.04434719 -283.1875 469.25 C-283.4851123 468.66702148 -283.78272461 468.08404297 -284.08935547 467.48339844 C-289.70621308 455.73362459 -292.85293277 442.80009659 -296.0703125 430.23046875 C-296.45848583 428.73032722 -296.84713966 427.23030996 -297.23623657 425.73040771 C-298.05382062 422.5749283 -298.86826615 419.41866378 -299.68005371 416.26168823 C-300.9547827 411.30464301 -302.23703901 406.34956383 -303.52050781 401.39477539 C-305.20711094 394.88162969 -306.89128065 388.36786146 -308.57324219 381.85351562 C-311.21945579 371.60626353 -313.88183174 361.36329455 -316.5625 351.125 C-316.76587982 350.34734283 -316.96925964 349.56968567 -317.17880249 348.76846313 C-321.93066719 330.61085299 -326.80769361 312.48634494 -331.68847656 294.36303711 C-333.40786489 287.97419766 -335.11556863 281.58233954 -336.8125 275.1875 C-337.15115082 273.91660019 -337.15115082 273.91660019 -337.49664307 272.62002563 C-338.08002817 270.41925345 -338.65361551 268.21623663 -339.22265625 266.01171875 C-339.52437744 264.85244873 -339.82609863 263.69317871 -340.13696289 262.4987793 C-341.55369508 255.55438512 -342.4994013 247.54961433 -339.125 241.0625 C-335.95490945 237.12130634 -332.56753115 234.00095017 -327.8125 232.1875 C-324.90460252 232.00630533 -322.09502639 231.9348943 -319.18847656 231.96044922 C-318.31982468 231.96015717 -317.45117279 231.95986511 -316.55619812 231.95956421 C-313.68840505 231.96095623 -310.82087262 231.97651147 -307.953125 231.9921875 C-305.96344139 231.99591808 -303.97375593 231.99876484 -301.98406982 232.00076294 C-296.74960246 232.00839582 -291.51524624 232.0280414 -286.28082275 232.0501709 C-280.93853255 232.07063673 -275.59622437 232.07976624 -270.25390625 232.08984375 C-259.77338869 232.11128756 -249.29295359 232.14541941 -238.8125 232.1875 C-238.61637619 231.096082 -238.42025238 230.004664 -238.21818542 228.88017273 C-237.95318432 227.4300899 -237.68798094 225.98004402 -237.42260742 224.5300293 C-237.29428276 223.81282463 -237.1659581 223.09561996 -237.03374481 222.35668182 C-235.98042224 216.63646842 -234.39547363 211.36258897 -232.125 206 C-231.77759766 205.15904785 -231.43019531 204.3180957 -231.07226562 203.45166016 C-220.38349741 178.3137958 -201.57286508 158.6772953 -176.25390625 148.46484375 C-161.29693745 142.91327871 -147.64781323 140.82577965 -131.8125 141.1875 C-131.79832031 140.26195312 -131.78414062 139.33640625 -131.76953125 138.3828125 C-130.67102073 101.81544529 -119.45457546 64.59128287 -92.73291016 38.65625 C-68.50672678 15.95991455 -33.52491846 0.29356321 0 0 Z " fill="#005C3F" transform="translate(590.8125,196.8125)"/>
<path d="M0 0 C0.74894531 -0.01417969 1.49789062 -0.02835938 2.26953125 -0.04296875 C4.1875 0.1875 4.1875 0.1875 6.1875 2.1875 C8.51511163 31.88218172 -5.86247218 65.96915488 -24.03125 89 C-43.1651792 111.09834077 -71.18970774 120.13077069 -98.55078125 127.46484375 C-111.94003881 131.00212931 -111.94003881 131.00212931 -121.8125 140.1875 C-119.94658203 140.55101562 -119.94658203 140.55101562 -118.04296875 140.921875 C-109.04039889 142.71641321 -100.25749789 144.48057666 -91.8125 148.1875 C-90.86503906 148.59484375 -89.91757812 149.0021875 -88.94140625 149.421875 C-61.64916316 162.05651549 -44.27908286 186.57334442 -33.3984375 213.71484375 C-31.07968107 220.19568455 -30.53453051 224.96719491 -29.8125 232.1875 C-98.7825 232.1875 -167.7525 232.1875 -238.8125 232.1875 C-235.31507886 213.53458724 -235.31507886 213.53458724 -232.125 206 C-231.77759766 205.15904785 -231.43019531 204.3180957 -231.07226562 203.45166016 C-220.38349741 178.3137958 -201.57286508 158.6772953 -176.25390625 148.46484375 C-161.29693745 142.91327871 -147.64781323 140.82577965 -131.8125 141.1875 C-131.79832031 140.26195312 -131.78414063 139.33640625 -131.76953125 138.3828125 C-130.67102073 101.81544529 -119.45457546 64.59128287 -92.73291016 38.65625 C-68.50672678 15.95991455 -33.52491846 0.29356321 0 0 Z " fill="#FE800C" transform="translate(590.8125,196.8125)"/>
<path d="M0 0 C2.62199257 -0.00965476 5.24318232 -0.04073397 7.86499023 -0.07226562 C33.88025949 -0.23610151 58.42003493 5.79348398 79.08959961 22.24023438 C80.07959961 23.23023438 80.07959961 23.23023438 81.08959961 24.24023438 C81.00946356 29.27990168 77.85043221 32.31382314 74.65209961 35.86523438 C74.11512451 36.47625 73.57814941 37.08726562 73.02490234 37.71679688 C71.39130567 39.56860831 69.74378804 41.40680882 68.08959961 43.24023438 C67.60620117 43.77616211 67.12280273 44.31208984 66.62475586 44.86425781 C64.49755227 47.21593261 62.35930011 49.55591613 60.20288086 51.88085938 C58.43529431 53.85428318 56.88766249 55.84751877 55.33959961 57.99023438 C54.22584961 59.10398437 54.22584961 59.10398437 53.08959961 60.24023438 C48.55148072 59.99088718 45.89421489 58.73372939 42.33959961 55.99023438 C30.2496051 47.18438763 17.83368312 43.64752078 2.90209961 43.74023438 C1.27461792 43.7488147 1.27461792 43.7488147 -0.38574219 43.75756836 C-19.55663622 44.17904704 -35.46942561 51.44862547 -48.91040039 65.24023438 C-62.40717541 79.78347903 -65.65769286 97.75463108 -65.19555664 116.91601562 C-64.39312895 135.92247235 -56.77476683 152.38757749 -42.94555664 165.47070312 C-27.43157406 178.95982809 -8.74246278 181.23000459 11.08959961 180.24023438 C24.0500758 178.71395075 34.62536294 173.35693684 43.83569336 164.19335938 C46.19203631 162.15146774 48.19487187 161.31748171 51.08959961 160.24023438 C55.39947935 164.40195606 59.6893919 168.58289339 63.96191406 172.78295898 C65.41848702 174.20933212 66.88039578 175.63027738 68.34765625 177.0456543 C70.45425434 179.07958651 72.54097497 181.13218316 74.62475586 183.18945312 C75.28613052 183.81986008 75.94750519 184.45026703 76.62892151 185.09977722 C81.08511038 189.5526042 81.08511038 189.5526042 81.10791016 193.04492188 C75.63928809 204.83438474 57.77129337 212.70722235 46.27319336 216.92382812 C31.32546285 221.93068061 15.43271128 223.47300409 -0.22290039 223.49023438 C-0.93771576 223.49157379 -1.65253113 223.49291321 -2.38900757 223.49429321 C-13.49090749 223.48977879 -24.0828967 222.81027921 -34.91040039 220.24023438 C-35.89782227 220.02367187 -36.88524414 219.80710937 -37.90258789 219.58398438 C-64.84876294 213.02317654 -89.10118093 196.55008677 -103.87866211 172.95214844 C-109.75148909 163.20764707 -113.67541483 153.08695066 -116.91040039 142.24023438 C-117.14629883 141.45777344 -117.38219727 140.6753125 -117.62524414 139.86914062 C-125.36995217 111.77337499 -119.37416935 79.27569919 -105.35961914 54.31835938 C-89.54516165 27.3307126 -63.50195112 10.44284802 -33.72192383 2.66894531 C-22.58466422 0.01535515 -11.38704053 0.02524609 0 0 Z " fill="#429833" transform="translate(515.910400390625,466.759765625)"/>
<path d="M0 0 C0.74894531 -0.01417969 1.49789062 -0.02835938 2.26953125 -0.04296875 C4.1875 0.1875 4.1875 0.1875 6.1875 2.1875 C8.51511163 31.88218172 -5.86247218 65.96915488 -24.03125 89 C-43.1651792 111.09834077 -71.18970774 120.13077069 -98.55078125 127.46484375 C-111.52635852 130.73871482 -111.52635852 130.73871482 -121.24609375 139.35546875 C-122.8125 141.1875 -122.8125 141.1875 -125.07421875 141.578125 C-125.87472656 141.53171875 -126.67523438 141.4853125 -127.5 141.4375 C-128.30824219 141.40140625 -129.11648438 141.3653125 -129.94921875 141.328125 C-130.56410156 141.28171875 -131.17898438 141.2353125 -131.8125 141.1875 C-131.23865987 103.73138962 -120.13288031 65.24961978 -92.73291016 38.65625 C-68.50672678 15.95991455 -33.52491846 0.29356321 0 0 Z " fill="#015D3F" transform="translate(590.8125,196.8125)"/>
<path d="M0 0 C35.57781256 2.51568905 70.55149629 17.10188343 95.125 43.25 C113.77092918 64.87174414 119.60519771 92.22814948 119 120 C88.12254421 120.58608557 54.841253 109.65919402 32.234375 88.234375 C24.81110296 80.81110296 19.18305011 73.15637423 14 64 C13.39027344 62.93007813 12.78054688 61.86015625 12.15234375 60.7578125 C3.7862633 45.12887099 -0.20500974 28.72274598 -0.0625 11.0625 C-0.05798828 9.99708984 -0.05347656 8.93167969 -0.04882812 7.83398438 C-0.03711787 5.22259709 -0.02071724 2.61132876 0 0 Z " fill="#419832" transform="translate(336,204)"/>
<path d="M0 0 C9.30386521 7.89193679 16.5243326 18.60439383 18 31 C19.0349163 44.60536307 14.93066406 56.26230154 6.3125 66.6875 C-1.49167796 75.10895758 -12.50471166 80.42102884 -23.98046875 81.203125 C-37.67215629 81.40324711 -48.91673015 77.41153519 -59.08203125 68.078125 C-67.54118852 58.91260225 -71.59341063 48.54165406 -71.5 36.1875 C-71.49500488 35.31383789 -71.49000977 34.44017578 -71.48486328 33.54003906 C-71.16318954 21.55602849 -66.2104517 12.38959935 -57.96875 3.91015625 C-41.62490378 -11.54168428 -18.33865013 -13.79908264 0 0 Z " fill="#015D3F" transform="translate(415,746)"/>
<path d="M0 0 C8.32475389 7.41223279 14.3490743 18.98547728 15.25 30.078125 C15.70900146 43.10229157 12.59715048 54.07759707 4 64 C-5.36269433 73.88477765 -16.1785434 78.91368952 -29.75 79.375 C-42.73374537 79.15281826 -52.74251257 73.98082976 -62.1875 65.375 C-70.79849498 56.42025273 -74.4551938 44.54537968 -74.43383789 32.34545898 C-74.08718977 19.76975547 -68.72833988 9.91056575 -60.125 1.07421875 C-42.52850351 -15.49345032 -18.62593143 -14.35257691 0 0 Z " fill="#015D3F" transform="translate(594,748)"/>
<path d="M0 0 C0.99 0 1.98 0 3 0 C3 0.66 3 1.32 3 2 C8.63526965 3.20484722 14.14536115 3.1129643 19.875 3.0625 C21.33679688 3.05573242 21.33679688 3.05573242 22.828125 3.04882812 C25.21881434 3.03710906 27.6093744 3.02070219 30 3 C26.40514482 6.59485518 22.28674535 6.18465527 17.375 6.25 C11.10276347 6.22375633 5.83372175 5.25821487 0 3 C0 2.01 0 1.02 0 0 Z " fill="#0D5538" transform="translate(547,821)"/>
<path d="M0 0 C0.33 0 0.66 0 1 0 C0.46048934 6.68993219 -0.88706171 12.63460728 -3 19 C-4.71927255 13.24304191 -3.82139237 7.87277461 -1.4375 2.4375 C-0.7259375 1.2309375 -0.7259375 1.2309375 0 0 Z " fill="#054E30" transform="translate(712,407)"/>
</svg>
